<?xml version="1.0" encoding="UTF-8"?><svg xmlns="http://www.w3.org/2000/svg" viewBox="0 0 278.76 55.62"><defs><style>.d{fill:#ee7478;}.e{fill:#fbf9f9;}.f{fill:#faf8f8;}</style></defs><g id="a"/><g id="b"><g id="c"><g><path class="d" d="M29.01,50.53c-1.79-.32-3.63-.48-5.36-1.02-1.42-.44-2.41-.14-3.5,.74-3.94,3.2-8.54,4.79-13.54,5.31-.27,.03-.57,.1-.8,0-.78-.3-1.53-.66-2.3-.99,.44-.62,.82-1.29,1.32-1.86,2.09-2.38,4.22-4.72,6.33-7.08,.82-.91,.2-1.36-.54-1.88-3.89-2.72-7-6.12-8.96-10.49C-1.66,25.85,.08,16.96,6.03,10.82,12.44,4.2,20.44,.96,29.45,.16c3.88-.35,7.82-.01,11.73,.02l4.9,1.11,.4,.14,2.4,.7c2.85,1.48,5.79,2.82,8.53,4.48,3.79,2.29,6.52,5.68,8.9,9.36,.69,2.44,1.75,4.85,2,7.33,.9,8.99-3.4,15.57-10.47,20.48-8.42,5.86-17.9,7.75-28.02,6.77-.27-.03-.54,0-.8,0Z"/><path class="e" d="M100.46,27.72c0,3.85,0,7.7,0,11.55,0,2.33-.22,2.59-2.07,2.59-1.95,0-2.19-.29-2.19-2.69,0-6.15,.03-12.3-.03-18.45,0-.86-.3-2.33-.77-2.47-1.23-.36-2.66-.3-3.93-.04-.39,.08-.72,1.36-.74,2.09-.09,2.84-.09,5.68-.01,8.51,.04,1.58-.58,2.13-2.14,2.15-1.62,.02-2.19-.68-2.19-2.17,.01-2.84,.02-5.68,0-8.51-.02-2.19-.25-2.36-2.72-2.37-2.44,0-2.69,.19-2.69,2.41-.02,6.35-.03,12.7,.01,19.06,.01,1.51-.3,2.51-2.08,2.47-1.87-.04-2.31-.42-2.31-2.44-.01-7.77-.01-15.54,0-23.31,0-2.24,.35-2.58,2.58-2.59,6.35-.01,12.7,.03,19.06-.03,1.64-.01,2.3,.56,2.27,2.25-.08,3.99-.03,7.97-.03,11.96Z"/><path class="f" d="M232.17,31.75c.03-5.06,.07-10.13,.1-15.19,.02-3.01,.02-3.03,3.03-3.03,4.73,0,9.46,0,14.19,0,1.96,0,2.41,.36,2.42,2.34,.04,7.91,.02,15.81,.02,23.72,0,1.54-.64,2.34-2.33,2.3-2.97-.06-5.94,.02-8.91,.05-1.75-.03-3.5-.06-5.25-.07-2.98-.02-3.13-.18-3.15-3.25-.01-2.29-.07-4.58-.1-6.87Zm15.37-4.03c0-2.57-.04-5.13,.02-7.7,.03-1.44-.5-2.13-2-2.09-2.3,.05-4.59,.07-6.89,0-1.41-.04-2,.6-2,1.91,0,5.2,0,10.4,0,15.6,0,1.29,.53,2.04,1.93,2.02,2.36-.03,4.73-.03,7.09,0,1.43,.02,1.88-.73,1.87-2.03-.03-2.57,0-5.13,0-7.7Z"/><path class="f" d="M206.62,13.51c2.39-.39,3.89,.53,4.82,2.82,.75,1.85,1.91,3.53,2.89,5.28,1.95,3.69,3.9,7.38,5.85,11.07l.52-.24v-7.99c.03-2.96,.07-5.92,.07-8.88,0-1.3,.21-2.14,1.89-2.1,1.58,.04,2.42,.47,2.43,2.13,.03,4.17,.08,8.33,.12,12.5-.04,3.71-.08,7.42-.13,11.13-.01,1.07,.17,2.38-1.3,2.57-1.43,.19-2.9,.41-3.83-1.37-2.73-5.26-5.59-10.45-8.41-15.67-.36-.67-.75-1.32-1.13-1.98l-.43,.13c-.03,.64-.08,1.27-.08,1.91,0,4.93-.04,9.86,.02,14.79,.02,1.5-.46,2.29-2.07,2.27-1.75-.03-2.32-.46-2.32-2.27-.03-7.97-.04-15.93,.04-23.9,0-.74,.69-1.47,1.06-2.2Z"/><path class="f" d="M149.53,28.53c-.01,3.58-.02,7.16-.05,10.74,0,1.05,.28,2.37-1.27,2.54-1.44,.16-2.94,.4-3.83-1.39-1.47-2.95-3.1-5.83-4.67-8.73-1.59-2.95-3.19-5.9-5.17-8.81-.05,.54-.14,1.07-.14,1.61-.01,5,.01,10-.02,15-.01,1.97-.68,2.49-2.62,2.39-1.26-.07-1.79-.65-1.79-1.91,.02-8.17-.01-16.35,.06-24.52,0-.63,.66-1.71,1.14-1.78,1.31-.19,2.85-.67,3.74,1.05,1.24,2.39,2.58,4.74,3.85,7.11,1.6,2.97,3.17,5.95,4.77,8.92,.34,.62,.74,1.21,1.53,1.76,.04-.69,.11-1.38,.11-2.07,0-4.8,0-9.59,0-14.39,0-2.16,.44-2.53,2.42-2.53,1.41,0,1.9,.66,1.9,1.99,0,3.1,.07,6.21,.11,9.31l-.08,3.71Z"/><path class="e" d="M175.63,17.86l-5.49,.16-2.06,.02c-.73-.03-1.46-.09-2.19-.09q-5.16-.01-4.61,5.27c-.02,.82-.04,1.64-.06,2.46-.02,3.31-.03,6.61-.07,9.92-.02,1.38,.6,1.92,1.98,1.88,2.29-.07,4.59-.07,6.88,0,1.42,.04,1.94-.64,1.93-1.95,0-2.56,.04-5.13-.01-7.69-.03-1.57,.45-2.36,2.2-2.33,1.71,.03,2.19,.72,2.15,2.35-.09,3.84-.02,7.69-.03,11.54,0,2.26-.2,2.47-2.38,2.48-4.86,.01-9.72,.01-14.58,0-2.24,0-2.53-.32-2.54-2.61-.02-2.23-.03-4.45-.05-6.68l-.02-2.46c.02-4.71,.04-9.43,.07-14.14,.01-2.19,.24-2.42,2.46-2.44,3.36-.03,6.73-.05,10.09-.08l2.07-.03c.8,.04,1.62,.17,2.41,.09,1.85-.21,2.62,.62,2.54,2.4l-.69,1.95Z"/><path class="f" d="M115.41,13.56c4.99-.06,4.05,0,4.83,3.96,1.37,6.93,2.68,13.87,3.95,20.82,.21,1.15,.88,2.56-1.06,3.15-1.95,.6-2.52,.37-2.94-1.65-1.31-6.26-2.6-12.52-3.92-18.77-.11-.53-.48-1-.73-1.5-.33,.5-.83,.97-.95,1.52-1.28,6.06-2.47,12.14-3.74,18.2-.26,1.25-.26,2.82-2.39,2.43-2.43-.44-2.69-.71-2.18-3.2,1.49-7.32,2.98-14.65,4.48-21.97q.61-2.98,3.65-2.99c.34,0,.67,0,1.01,0Z"/><path class="f" d="M191.12,13.56c3.94,.04,3.9-.54,4.66,3.7,1.31,7.29,2.73,14.55,4.11,21.83,.31,1.66-.23,2.3-2.11,2.66-1.55,.3-1.84-.75-2.07-1.85-1.25-6.13-2.48-12.26-3.71-18.39-.04-.2-.01-.43-.11-.59-.29-.47-.62-.92-.94-1.38-.28,.49-.7,.95-.81,1.47-1.29,6.19-2.54,12.4-3.79,18.6-.45,2.24-2.37,3.01-4.13,1.54-.41-.34-.57-1.32-.45-1.93,1.4-7.2,2.85-14.4,4.34-21.58,.85-4.1,.9-4.09,5.01-4.09Z"/><path class="e" d="M258.93,27.49c0-3.85,0-7.69,0-11.54,0-1.88,.52-2.4,2.34-2.43,1.83-.03,2.12,.27,2.12,2.28,0,6.27,0,12.55,0,18.82,0,2.53,.29,2.82,2.74,2.82,3.37,0,6.75,0,10.12,0,2.09,0,2.45,.4,2.5,2.23,.05,1.71-.81,2.21-2.38,2.2-4.99-.04-9.98,0-14.98-.02-2.23-.01-2.47-.29-2.48-2.63,0-3.91,0-7.83,0-11.74Z"/><path class="f" d="M243.72,27.71c.09,1.18,.21,2.2-1.62,2.2-1.85,0-1.63-1.08-1.64-2.23-.01-1.17-.17-2.2,1.66-2.2,1.85,0,1.67,1.06,1.6,2.22Z"/></g></g></g></svg>